<svg xmlns="http://www.w3.org/2000/svg" width="25.039" height="29.294" viewBox="0 0 25.039 29.294">
  <g id="ic_keranjang" transform="translate(-1298.505 -568.706)" style="isolation: isolate">
    <g id="Path_8" data-name="Path 8" transform="translate(1300 583)" fill="none">
      <path d="M0,0C4.7-3.75,17.246-3.75,22,0s-2.984,15-2.984,15H3.191S-4.7,3.75,0,0Z" stroke="none"/>
      <path d="M 10.98065280914307 -0.8125 C 6.814572334289551 -0.8125 3.08485221862793 0.09799003601074219 1.246992111206055 1.56365966796875 C 0.8992328643798828 1.84099006652832 0.4446220397949219 2.375280380249023 0.5113925933837891 3.807089805603027 C 0.5653419494628906 4.963910102844238 0.9497432708740234 6.401289939880371 1.653932571411133 8.079290390014648 C 2.502170562744141 10.10053634643555 3.61041259765625 11.96380138397217 4.267959594726562 13 L 17.92644500732422 13 C 18.56368255615234 11.97326850891113 19.62271881103516 10.14824962615967 20.43900299072266 8.149940490722656 C 21.12802314758301 6.463200092315674 21.49862289428711 5.017769813537598 21.54052352905273 3.853829860687256 C 21.59289169311523 2.39922046661377 21.12091255187988 1.853899955749512 20.76134300231934 1.570260047912598 C 18.89814186096191 0.100520133972168 15.1504020690918 -0.8125 10.98065280914307 -0.8125 M 10.9806489944458 -2.8125 C 15.29862785339355 -2.8125 19.6230583190918 -1.875 22.00000190734863 0 C 26.75389289855957 3.75 19.01556205749512 15 19.01556205749512 15 L 3.190853118896484 15 C 3.190853118896484 15 -4.702287673950195 3.75 1.9073486328125e-06 0 C 2.351142883300781 -1.875 6.662670135498047 -2.8125 10.9806489944458 -2.8125 Z" stroke="none" fill="#fff"/>
    </g>
    <path id="Path_9" data-name="Path 9" d="M380.025,1528.706c6.886,0,7.819,12.772,7.819,12.772a30.285,30.285,0,0,0-7.819-1.24,27.444,27.444,0,0,0-7.582,1.24S373.139,1528.706,380.025,1528.706Z" transform="translate(931 -959)" fill="none" stroke="#fff" stroke-width="2"/>
  </g>
</svg>
